<?xml version="1.0" encoding="UTF-8" standalone="no"?>
<svg
   xmlns:serif="http://www.serif.com/"
   xmlns:dc="http://purl.org/dc/elements/1.1/"
   xmlns:cc="http://creativecommons.org/ns#"
   xmlns:rdf="http://www.w3.org/1999/02/22-rdf-syntax-ns#"
   xmlns:svg="http://www.w3.org/2000/svg"
   xmlns="http://www.w3.org/2000/svg"
   xmlns:sodipodi="http://sodipodi.sourceforge.net/DTD/sodipodi-0.dtd"
   xmlns:inkscape="http://www.inkscape.org/namespaces/inkscape"
   width="100%"
   height="100%"
   viewBox="0 0 100 100"
   version="1.1"
   xml:space="preserve"
   style="fill-rule:evenodd;clip-rule:evenodd;stroke-linejoin:round;stroke-miterlimit:2;"
   id="svg107"
   sodipodi:docname="logo.svg"
   inkscape:version="0.92.4 (f8dce91, 2019-08-02)"><metadata
   id="metadata113"><rdf:RDF><cc:Work
       rdf:about=""><dc:format>image/svg+xml</dc:format><dc:type
         rdf:resource="http://purl.org/dc/dcmitype/StillImage" /><dc:title></dc:title></cc:Work></rdf:RDF></metadata><defs
   id="defs111" /><sodipodi:namedview
   pagecolor="#ffffff"
   bordercolor="#666666"
   borderopacity="1"
   objecttolerance="10"
   gridtolerance="10"
   guidetolerance="10"
   inkscape:pageopacity="0"
   inkscape:pageshadow="2"
   inkscape:window-width="3440"
   inkscape:window-height="1385"
   id="namedview109"
   showgrid="false"
   inkscape:zoom="12.04"
   inkscape:cx="50"
   inkscape:cy="50"
   inkscape:window-x="0"
   inkscape:window-y="27"
   inkscape:window-maximized="1"
   inkscape:current-layer="svg107" />
    <g
   transform="matrix(1.14689,0,0,1.14689,-8.9443,-7.24895)"
   id="g74">
        <path
   d="M85.093,40.543C85.093,21.932 70.008,6.845 51.396,6.845C32.784,6.845 17.697,21.932 17.697,40.543C17.697,51.443 22.875,61.127 30.902,67.286L30.83,67.348L43.984,83.128C43.875,83.399 43.811,83.694 43.811,84.006L43.811,90.633C43.811,91.934 44.865,92.989 46.167,92.989L56.623,92.989C57.924,92.989 58.98,91.935 58.98,90.633L58.98,84.006C58.98,83.569 58.852,83.163 58.645,82.813L71.625,67.496C79.804,61.347 85.093,51.563 85.093,40.543ZM58.147,73.564L54.377,81.649L48.167,81.649L44.37,73.502C46.638,73.982 48.987,74.241 51.397,74.241C53.708,74.241 55.964,74.007 58.147,73.564ZM42.007,72.906L41.925,72.945L45.99,81.666C45.684,81.689 45.396,81.768 45.135,81.896L35.383,70.2C37.468,71.328 39.687,72.234 42.007,72.906ZM57.376,81.783C57.139,81.703 56.887,81.649 56.622,81.649L56.56,81.649L60.614,72.954C62.856,72.318 65.002,71.457 67.028,70.395L57.376,81.783Z"
   style="fill:rgb(144,210,237);fill-rule:nonzero;"
   id="path72" />
    </g>
    <g
   id="noun_Sign-Language-Y_253038--2-"
   serif:id="noun_Sign Language Y_253038 (2)"
   transform="matrix(1.01786,0,0,1.01597,1.63355,-11.6498)">
        <path
   d="M36.627,35.697C34.366,35.748 32.556,37.523 32.556,39.768L32.556,41.493L28.416,30.798C27.726,28.245 25.035,26.658 22.413,27.417C21.171,27.762 20.067,28.59 19.446,29.694C18.825,30.798 18.618,32.178 18.963,33.42L23.793,50.877C24,52.809 26.691,77.994 42.63,77.925L42.699,77.925C59.742,77.925 63.054,68.748 63.675,66.333L79.476,61.158C80.373,60.951 81.132,60.33 81.546,59.364C82.236,57.777 82.167,55.431 81.339,54.051C80.166,51.912 77.82,49.497 73.197,50.049L62.571,51.36L62.571,39.63C62.571,37.521 60.894,35.815 58.707,35.766L55.326,35.766C54.242,35.784 53.307,36.127 52.635,36.732C52.093,35.175 50.621,34.016 48.771,33.972L46.011,33.972C44.162,34.014 42.756,35.106 42.147,36.663C41.48,36.13 40.619,35.725 39.594,35.697L36.627,35.697Z"
   style="fill:rgb(235,235,235);"
   id="path76" />
        <path
   d="M42.768,76.269L42.699,76.269C28.071,76.269 25.587,50.946 25.587,50.67L20.688,33.006C20.481,32.178 20.55,31.35 21.033,30.591C21.447,29.832 22.137,29.349 22.965,29.142C24.69,28.659 26.415,29.694 26.829,31.35L32.211,45.219C32.28,45.426 32.418,45.564 32.625,45.633L32.625,52.533C32.625,54.603 34.281,56.328 36.42,56.328L40.353,56.328C41.043,56.328 41.733,56.121 42.216,55.707C42.837,57.087 44.148,58.053 45.735,58.053L49.254,58.053C50.496,58.053 51.531,57.432 52.152,56.535C52.98,57.432 54.153,58.053 55.464,58.053L58.224,58.053C60.639,58.053 62.571,56.121 62.571,53.706L62.571,53.016L73.404,51.705C76.371,51.36 78.51,52.464 79.89,54.879C80.373,55.845 80.442,57.57 79.959,58.674C79.752,59.157 79.407,59.433 79.062,59.502L62.157,65.022L62.088,65.574C62.088,65.712 60.643,76.171 42.768,76.269Z"
   style="fill:rgb(235,235,235);"
   id="path78" />
        <path
   d="M58.224,56.328L55.464,56.328C54.015,56.328 52.842,55.155 52.842,53.706L52.842,39.906C52.842,38.526 53.946,37.422 55.326,37.422L58.707,37.422C59.88,37.422 60.846,38.388 60.846,39.561L60.846,53.706C60.846,55.128 59.716,56.284 58.224,56.328Z"
   style="fill:rgb(235,235,235);"
   id="path80" />
        <path
   d="M43.665,38.112L43.596,38.112C43.596,36.801 44.7,35.697 46.011,35.697L48.771,35.697C50.082,35.697 51.186,36.801 51.186,38.112L51.186,54.465C51.186,55.474 50.398,56.287 49.323,56.328L45.804,56.328C44.631,56.328 43.665,55.362 43.665,54.189L43.665,38.112Z"
   style="fill:rgb(235,235,235);"
   id="path82" />
        <path
   d="M40.284,54.603L36.351,54.603C35.247,54.603 34.281,53.706 34.281,52.533L34.281,39.768C34.281,38.526 35.316,37.422 36.627,37.422L39.525,37.422C40.767,37.422 41.871,38.457 41.871,39.768L41.871,53.016C41.871,53.883 41.226,54.557 40.284,54.603Z"
   style="fill:rgb(235,235,235);"
   id="path84" />
        <g
   transform="matrix(0.69,0,0,0.69,13.8565,10.4431)"
   id="g88">
            <path
   d="M70.6,59.3L86,57.4C92.7,56.6 96.1,60.1 97.8,63.2C99,65.2 99.1,68.6 98.1,70.9C97.5,72.3 96.4,73.2 95.1,73.5L72.2,81C71.3,84.5 66.5,97.8 41.8,97.8L41.7,97.8C18.6,97.9 14.7,61.4 14.4,58.6L7.4,33.3C6.9,31.5 7.2,29.5 8.1,27.9C9,26.3 10.6,25.1 12.4,24.6C16.2,23.5 20.1,25.8 21.1,29.5L27.1,45L27.1,42.5C27.1,39.246 29.725,36.673 33,36.6L37.3,36.6C38.786,36.64 40.033,37.227 41,38C41.883,35.743 43.922,34.16 46.6,34.1L50.6,34.1C53.282,34.164 55.415,35.843 56.2,38.1C57.175,37.223 58.53,36.725 60.1,36.7L65,36.7C68.17,36.771 70.6,39.244 70.6,42.3L70.6,59.3Z"
   id="path86" />
        </g>
        <g
   transform="matrix(0.69,0,0,0.69,13.8565,10.4431)"
   id="g92">
            <path
   d="M41.9,95.4C67.806,95.257 69.9,80.1 69.9,79.9L70,79.1L94.5,71.1C95,71 95.5,70.6 95.8,69.9C96.5,68.3 96.4,65.8 95.7,64.4C93.7,60.9 90.6,59.3 86.3,59.8L70.6,61.7L70.6,62.7C70.6,66.2 67.8,69 64.3,69L60.3,69C58.4,69 56.7,68.1 55.5,66.8C54.6,68.1 53.1,69 51.3,69L46.2,69C43.9,69 42,67.6 41.1,65.6C40.4,66.2 39.4,66.5 38.4,66.5L32.7,66.5C29.6,66.5 27.2,64 27.2,61L27.2,51C26.9,50.9 26.7,50.7 26.6,50.4L18.8,30.3C18.2,27.9 15.7,26.4 13.2,27.1C12,27.4 11,28.1 10.4,29.2C9.7,30.3 9.6,31.5 9.9,32.7L17,58.3C17,58.7 20.6,95.4 41.8,95.4L41.9,95.4Z"
   style="fill:white;"
   id="path90" />
        </g>
        <g
   transform="matrix(0.69,0,0,0.69,13.8565,10.4431)"
   id="g96">
            <path
   d="M64.3,66.5C66.463,66.436 68.1,64.761 68.1,62.7L68.1,42.2C68.1,40.5 66.7,39.1 65,39.1L60.1,39.1C58.1,39.1 56.5,40.7 56.5,42.7L56.5,62.7C56.5,64.8 58.2,66.5 60.3,66.5L64.3,66.5Z"
   style="fill:white;"
   id="path94" />
        </g>
        <g
   transform="matrix(0.69,0,0,0.69,13.8565,10.4431)"
   id="g100">
            <path
   d="M51.4,66.5C52.959,66.44 54.1,65.262 54.1,63.8L54.1,40.1C54.1,38.2 52.5,36.6 50.6,36.6L46.6,36.6C44.7,36.6 43.1,38.2 43.1,40.1L43.2,40.1L43.2,63.4C43.2,65.1 44.6,66.5 46.3,66.5L51.4,66.5Z"
   style="fill:white;"
   id="path98" />
        </g>
        <g
   transform="matrix(0.69,0,0,0.69,13.8565,10.4431)"
   id="g104">
            <path
   d="M38.3,64C39.666,63.933 40.6,62.957 40.6,61.7L40.6,42.5C40.6,40.6 39,39.1 37.2,39.1L33,39.1C31.1,39.1 29.6,40.7 29.6,42.5L29.6,61C29.6,62.7 31,64 32.6,64L38.3,64Z"
   style="fill:white;"
   id="path102" />
        </g>
    </g>
</svg>